<?xml version="1.0" encoding="UTF-8"?>
<svg width="32px" height="32px" viewBox="0 0 32 32" version="1.1" xmlns="http://www.w3.org/2000/svg" xmlns:xlink="http://www.w3.org/1999/xlink">
    <title>logo32</title>
    <defs>
        <linearGradient x1="50%" y1="50%" x2="50%" y2="98.2263064%" id="linearGradient-1">
            <stop stop-color="#C09F52" offset="0%"></stop>
            <stop stop-color="#897036" offset="100%"></stop>
        </linearGradient>
    </defs>
    <g id="Page-1" stroke="none" stroke-width="1" fill="none" fill-rule="evenodd">
        <g id="logo32" fill-rule="nonzero">
            <path d="M9.133841,0 L22.866159,0 C26.0421945,0 27.1939017,0.33069124 28.3550128,0.951660256 C29.5161239,1.57262927 30.4273708,2.48387607 31.0483398,3.64498718 C31.6693087,4.80609829 32,5.95780551 32,9.133841 L32,22.866159 C32,26.0421945 31.6693087,27.1939017 31.0483398,28.3550128 C30.4273708,29.5161239 29.5161239,30.4273708 28.3550128,31.0483398 C27.1939017,31.6693087 26.0421945,32 22.866159,32 L9.133841,32 C5.95780551,32 4.80609829,31.6693087 3.64498718,31.0483398 C2.48387607,30.4273708 1.57262927,29.5161239 0.951660256,28.3550128 C0.33069124,27.1939017 0,26.0421945 0,22.866159 L0,9.133841 C0,5.95780551 0.33069124,4.80609829 0.951660256,3.64498718 C1.57262927,2.48387607 2.48387607,1.57262927 3.64498718,0.951660256 C4.80609829,0.33069124 5.95780551,0 9.133841,0 Z" id="GoldBg" fill="url(#linearGradient-1)"></path>
            <g id="bitcoin" transform="translate(8.500000, 5.937500)" fill="#FFFFFF">
                <path d="M3.59375,19.875 L3.59375,17.390625 L0,17.390625 L0,15.734375 L2.48798077,15.734375 L2.48798077,4.140625 L0,4.140625 L0,2.484375 L3.59375,2.484375 L3.59375,0 L5.25240384,0 L5.25240384,2.484375 L8.29326925,2.484375 L8.29326925,0 L9.95192306,0 L9.95192306,2.5671875 C10.9471154,2.76961806 11.7487981,3.25729167 12.3569711,4.03020833 C12.9651442,4.803125 13.2692308,5.66805556 13.2692308,6.625 C13.2692308,7.14027775 13.1678686,7.65095488 12.9651442,8.15703125 C12.7624199,8.66310763 12.4675481,9.11857637 12.0805289,9.5234375 C12.7992789,9.89149306 13.3613782,10.4113715 13.7668269,11.0830729 C14.1722756,11.7547743 14.375,12.4770833 14.375,13.25 C14.375,14.3909723 13.9741586,15.3663194 13.1724759,16.1760417 C12.3707933,16.9857639 11.3894231,17.390625 10.2283654,17.390625 L9.95192306,17.390625 L9.95192306,19.875 L8.29326925,19.875 L8.29326925,17.390625 L5.25240384,17.390625 L5.25240384,19.875 L3.59375,19.875 Z M4.14663461,9.109375 L9.12259612,9.109375 C9.82291669,9.109375 10.4126603,8.86553819 10.8918269,8.37786456 C11.3709936,7.890191 11.6105769,7.30590275 11.6105769,6.625 C11.6105769,5.92569444 11.3709936,5.33680556 10.8918269,4.85833333 C10.4126603,4.37986111 9.82291669,4.140625 9.12259612,4.140625 L4.14663461,4.140625 L4.14663461,9.109375 Z M4.14663461,15.734375 L10.2283654,15.734375 C10.9286859,15.734375 11.5184295,15.4905382 11.9975961,15.0028646 C12.4767628,14.515191 12.7163461,13.9309027 12.7163461,13.25 C12.7163461,12.5506944 12.4767628,11.9618056 11.9975961,11.4833333 C11.5184295,11.0048611 10.9286859,10.765625 10.2283654,10.765625 L4.14663461,10.765625 L4.14663461,15.734375 Z" id="BitcoinShape"></path>
            </g>
        </g>
    </g>
</svg>