<?xml version="1.0" encoding="UTF-8"?>
<svg width="16px" height="16px" viewBox="0 0 16 16" version="1.1" xmlns="http://www.w3.org/2000/svg" xmlns:xlink="http://www.w3.org/1999/xlink">
    <title>logo32</title>
    <defs>
        <linearGradient x1="50%" y1="50%" x2="50%" y2="98.2263064%" id="linearGradient-1">
            <stop stop-color="#C09F52" offset="0%"></stop>
            <stop stop-color="#897036" offset="100%"></stop>
        </linearGradient>
    </defs>
    <g id="Page-1" stroke="none" stroke-width="1" fill="none" fill-rule="evenodd">
        <g id="logo32" fill-rule="nonzero">
            <path d="M4.5669205,0 L11.4330795,0 C13.0210973,0 13.5969508,0.16534562 14.1775064,0.475830128 C14.758062,0.786314637 15.2136854,1.24193803 15.5241699,1.82249359 C15.8346544,2.40304915 16,2.97890276 16,4.5669205 L16,11.4330795 C16,13.0210973 15.8346544,13.5969508 15.5241699,14.1775064 C15.2136854,14.758062 14.758062,15.2136854 14.1775064,15.5241699 C13.5969508,15.8346544 13.0210973,16 11.4330795,16 L4.5669205,16 C2.97890276,16 2.40304915,15.8346544 1.82249359,15.5241699 C1.24193803,15.2136854 0.786314637,14.758062 0.475830128,14.1775064 C0.16534562,13.5969508 0,13.0210973 0,11.4330795 L0,4.5669205 C0,2.97890276 0.16534562,2.40304915 0.475830128,1.82249359 C0.786314637,1.24193803 1.24193803,0.786314637 1.82249359,0.475830128 C2.40304915,0.16534562 2.97890276,0 4.5669205,0 Z" id="GoldBg" fill="url(#linearGradient-1)"></path>
            <g id="bitcoin" transform="translate(4.250000, 2.968750)" fill="#FFFFFF">
                <path d="M1.796875,9.9375 L1.796875,8.6953125 L0,8.6953125 L0,7.8671875 L1.24399038,7.8671875 L1.24399038,2.0703125 L0,2.0703125 L0,1.2421875 L1.796875,1.2421875 L1.796875,0 L2.62620192,0 L2.62620192,1.2421875 L4.14663462,1.2421875 L4.14663462,0 L4.97596153,0 L4.97596153,1.28359375 C5.47355769,1.38480903 5.87439903,1.62864583 6.17848556,2.01510417 C6.48257212,2.4015625 6.63461538,2.83402778 6.63461538,3.3125 C6.63461538,3.57013888 6.58393428,3.82547744 6.48257212,4.07851562 C6.38120994,4.33155381 6.23377403,4.55928819 6.04026444,4.76171875 C6.39963944,4.94574653 6.68068909,5.20568575 6.88341347,5.54153647 C7.08613781,5.87738716 7.1875,6.23854166 7.1875,6.625 C7.1875,7.19548613 6.98707931,7.68315972 6.58623797,8.08802084 C6.18539663,8.49288194 5.69471153,8.6953125 5.11418269,8.6953125 L4.97596153,8.6953125 L4.97596153,9.9375 L4.14663462,9.9375 L4.14663462,8.6953125 L2.62620192,8.6953125 L2.62620192,9.9375 L1.796875,9.9375 Z M2.07331731,4.5546875 L4.56129806,4.5546875 C4.91145834,4.5546875 5.20633013,4.43276909 5.44591347,4.18893228 C5.68549678,3.9450955 5.80528847,3.65295137 5.80528847,3.3125 C5.80528847,2.96284722 5.68549678,2.66840278 5.44591347,2.42916667 C5.20633013,2.18993056 4.91145834,2.0703125 4.56129806,2.0703125 L2.07331731,2.0703125 L2.07331731,4.5546875 Z M2.07331731,7.8671875 L5.11418269,7.8671875 C5.46434294,7.8671875 5.75921475,7.74526909 5.99879806,7.50143228 C6.23838141,7.2575955 6.35817306,6.96545137 6.35817306,6.625 C6.35817306,6.27534722 6.23838141,5.98090278 5.99879806,5.74166666 C5.75921475,5.50243056 5.46434294,5.3828125 5.11418269,5.3828125 L2.07331731,5.3828125 L2.07331731,7.8671875 Z" id="BitcoinShape"></path>
            </g>
        </g>
    </g>
</svg>