<?xml version="1.0" encoding="UTF-8"?>
<svg width="512px" height="512px" viewBox="0 0 512 512" version="1.1" xmlns="http://www.w3.org/2000/svg" xmlns:xlink="http://www.w3.org/1999/xlink">
    <title>Bitcoin Hash Logo</title>
    <defs>
        <linearGradient x1="50%" y1="50%" x2="50%" y2="98.2263064%" id="linearGradient-1">
            <stop stop-color="#C09F52" offset="0%"></stop>
            <stop stop-color="#897036" offset="100%"></stop>
        </linearGradient>
    </defs>
    <g id="Page-1" stroke="none" stroke-width="1" fill="none" fill-rule="evenodd">
        <g id="logo" fill-rule="nonzero">
            <path d="M146.141456,0 L365.858544,0 C416.675112,0 435.102427,5.29105984 453.680205,15.2265641 C472.257983,25.1620684 486.837932,39.7420171 496.773436,58.3197949 C506.70894,76.8975727 512,95.3248882 512,146.141456 L512,365.858544 C512,416.675112 506.70894,435.102427 496.773436,453.680205 C486.837932,472.257983 472.257983,486.837932 453.680205,496.773436 C435.102427,506.70894 416.675112,512 365.858544,512 L146.141456,512 C95.3248882,512 76.8975727,506.70894 58.3197949,496.773436 C39.7420171,486.837932 25.1620684,472.257983 15.2265641,453.680205 C5.29105984,435.102427 0,416.675112 0,365.858544 L0,146.141456 C0,95.3248882 5.29105984,76.8975727 15.2265641,58.3197949 C25.1620684,39.7420171 39.7420171,25.1620684 58.3197949,15.2265641 C76.8975727,5.29105984 95.3248882,0 146.141456,0 Z" id="GoldBg" fill="url(#linearGradient-1)"></path>
            <g id="bitcoin" transform="translate(136.000000, 95.000000)" fill="#FFFFFF">
                <path d="M57.5,318 L57.5,278.25 L0,278.25 L0,251.75 L39.8076923,251.75 L39.8076923,66.25 L0,66.25 L0,39.75 L57.5,39.75 L57.5,0 L84.0384615,0 L84.0384615,39.75 L132.692308,39.75 L132.692308,0 L159.230769,0 L159.230769,41.075 C175.153846,44.3138889 187.980769,52.1166667 197.711538,64.4833333 C207.442308,76.85 212.307692,90.6888889 212.307692,106 C212.307692,114.244444 210.685897,122.415278 207.442308,130.5125 C204.198718,138.609722 199.480769,145.897222 193.288462,152.375 C204.788462,158.263889 213.782051,166.581944 220.269231,177.329167 C226.75641,188.076389 230,199.633333 230,212 C230,230.255556 223.586538,245.861111 210.759615,258.816667 C197.932692,271.772222 182.230769,278.25 163.653846,278.25 L159.230769,278.25 L159.230769,318 L132.692308,318 L132.692308,278.25 L84.0384615,278.25 L84.0384615,318 L57.5,318 Z M66.3461538,145.75 L145.961538,145.75 C157.166667,145.75 166.602564,141.848611 174.269231,134.045833 C181.935897,126.243056 185.769231,116.894444 185.769231,106 C185.769231,94.8111111 181.935897,85.3888889 174.269231,77.7333333 C166.602564,70.0777778 157.166667,66.25 145.961538,66.25 L66.3461538,66.25 L66.3461538,145.75 Z M66.3461538,251.75 L163.653846,251.75 C174.858974,251.75 184.294872,247.848611 191.961538,240.045833 C199.628205,232.243056 203.461538,222.894444 203.461538,212 C203.461538,200.811111 199.628205,191.388889 191.961538,183.733333 C184.294872,176.077778 174.858974,172.25 163.653846,172.25 L66.3461538,172.25 L66.3461538,251.75 Z" id="BitcoinShape"></path>
            </g>
        </g>
    </g>
</svg>